<?xml version="1.0" encoding="UTF-8"?> <svg xmlns="http://www.w3.org/2000/svg" width="897" height="174" viewBox="0 0 598 116" fill="none"><g clip-path="url(#clip0_0_20)"><path d="M434.459 71.7966C433.874 66.016 434.415 59.972 435.147 53.8987C435.98 47.0059 440.01 42.9814 446.154 40.6765C447.697 40.0984 449.372 39.535 450.989 39.5569C459.619 39.652 468.25 38.4228 476.88 39.3886C479.66 39.7033 482.446 40.1569 484.472 42.2862C486.783 44.7156 487.529 48.0888 489.292 50.8694C489.811 51.6816 489.277 52.6621 488.926 53.5182C485.993 60.7257 482.044 67.377 477.458 73.6113C473.589 78.8724 467.277 80.6358 461.784 83.5042C461.031 83.8993 459.97 83.7457 459.049 83.7603C457.542 83.7822 456.021 83.6505 455.201 82.1286C454.214 80.2992 455.289 78.8651 456.452 77.7089C458.785 75.3894 460.745 72.7332 463.613 70.8893C469.01 67.4063 471.782 62.2037 472.506 55.8451C472.623 54.8353 472.455 53.8694 471.819 53.284C468.001 49.7279 464.051 46.2668 458.273 47.1229C453.037 47.8986 449.094 50.4303 446.915 55.567C440.851 69.8429 439.703 84.3969 443.909 99.3679C444.486 101.431 445.84 104.3 443.682 105.485C440.968 106.985 439.842 103.422 438.153 102.024C436.375 100.561 436.324 98.0435 436.053 95.863C435.066 87.9823 434.21 80.0944 434.474 71.7966H434.459Z" fill="white"></path><path d="M218.498 99.3167C201.998 99.7558 190.903 86.1604 191.619 73.2894C191.817 69.7185 192.6 66.3087 194.582 63.3452C198.948 56.8256 204.17 51.1474 211.484 47.8693C216.999 45.4034 222.112 42.0228 228.263 40.9545C232.783 40.1643 236.652 41.2692 240.243 43.779C243.483 46.04 245.063 49.1571 244.946 53.2328C244.858 56.2475 243.717 58.9769 243.088 61.8306C242.774 63.2794 241.472 64.3111 240.053 64.8672C238.173 65.5989 236.271 66.316 234.311 66.7697C227.802 68.2697 221.124 68.0868 214.52 68.5551C212.552 68.6941 210.526 68.0283 208.529 67.7136C207.732 67.5892 207.111 67.0917 207.154 66.2868C207.176 65.8185 207.623 65.255 208.032 64.9477C209.239 64.0404 210.687 63.7111 212.157 63.5062C217.811 62.7233 223.465 61.955 229.111 61.1281C230.925 60.8647 232.797 60.6525 234.509 60.0525C237.434 59.0208 239.424 55.6475 239.204 52.6109C239.022 50.0937 236.9 47.8181 233.836 46.9912C231.839 46.4498 229.718 46.3693 227.831 47.1229C218.433 50.8913 208.946 54.4914 202.386 62.9428C198.005 68.5917 197.654 71.8991 201.172 78.0236C204.909 84.5432 210.607 88.2604 217.745 89.8629C224.81 91.4434 230.764 88.6043 236.242 84.5506C239.665 82.0188 242.949 79.3261 247.286 78.5431C248.369 78.3529 249.466 78.0382 250.541 78.0895C254.63 78.2943 256.012 81.0237 253.796 84.4847C251.953 87.3677 249.254 89.4897 246.248 90.7922C240.177 93.419 234.136 96.1557 227.773 98.0947C224.532 99.0826 221.248 99.1631 218.506 99.3167H218.498Z" fill="white"></path><path d="M520.194 97.9777C511.98 97.9264 507.321 96.0532 503.708 91.8092C502.772 90.7117 501.784 89.6287 500.695 88.6848C494.178 83.0578 491.545 76.0479 492.964 67.5234C493.168 66.3014 493.234 65.0355 493.198 63.7989C493.037 58.6768 495.158 54.4914 498.508 50.8547C503.576 45.3449 510.027 41.8033 516.997 39.6521C523.99 37.4862 530.207 40.7277 535.224 45.2424C539.532 49.1205 538.588 58.1427 534.141 63.016C529.504 68.0941 522.863 68.8551 516.822 70.8161C515.491 71.2478 513.845 70.7064 513.194 69.0746C512.543 67.4429 513.692 66.3599 514.562 65.1965C515.396 64.0843 516.734 64.077 517.824 63.5355C520.801 62.0574 523.778 60.5866 526.696 59.0061C529.014 57.7549 530.411 55.7573 530.989 53.1597C531.83 49.3474 530.828 47.4742 527.076 46.8668C521.993 46.0473 517.005 46.4424 512.946 50.0645C508.798 53.767 504.03 57.1841 504.103 63.6599C504.198 71.7527 506.729 78.9163 513.128 84.0969C516.229 86.6067 520.201 86.0213 523.792 84.9018C529.373 83.1603 534.595 80.5919 539.466 77.3358C540.688 76.5236 542.026 75.4406 543.452 76.2309C545.105 77.1455 544.937 79.0261 544.842 80.6797C544.732 82.6261 543.972 84.4408 542.626 85.7433C535.597 92.5556 527.625 97.524 520.208 97.9996L520.194 97.9777Z" fill="white"></path><path d="M94.8187 102.99C96.1937 84.4701 96.9178 66.3892 99.4631 48.4693C99.6971 46.8303 99.9751 45.1766 100.443 43.5887C100.97 41.8033 102.22 41.1667 103.713 42.5204C104.605 43.3326 105.088 43.9253 106.404 43.1131C115.415 37.5227 125.201 40.9253 131.952 47.6425C143.991 59.6208 137.401 70.1722 126.386 76.0626C122.546 78.1187 117.865 78.2138 113.455 78.5504C111.626 78.6895 110.054 78.2065 109.608 76.2382C109.22 74.5333 110.412 73.5967 111.743 72.7552C114.384 71.0942 116.9 69.3307 120.008 68.4307C123.541 67.4063 126.971 65.9136 128.96 62.4159C129.919 60.7403 130.723 58.9037 129.524 57.2134C126.415 52.8377 123.928 47.8839 117.821 46.5229C110.573 44.9131 104.429 49.1498 104.086 56.65C103.5 69.3746 103.054 82.1066 102.491 94.8313C102.294 99.2509 101.913 103.663 101.628 108.083C101.489 110.315 100.802 112.246 98.1978 112.224C95.594 112.202 94.8991 110.256 94.8333 108.032C94.7821 106.188 94.826 104.344 94.826 102.99H94.8187Z" fill="white"></path><path d="M566.228 39.3667C568.451 39.9228 571.911 39.7618 574.522 42.2497C576.051 43.6985 578.121 44.057 579.949 44.8912C580.841 45.301 581.719 45.8717 581.448 46.8888C581.119 48.1254 579.956 48.4913 578.779 48.2205C576.453 47.6791 574.149 47.0205 571.831 46.4205C567.128 45.2058 563.697 46.9327 560.918 50.7962C559.375 52.9475 559.353 54.7768 560.794 56.8402C562.527 59.3281 564.853 61.0769 567.471 62.5038C575.707 67.0112 583.804 71.804 592.909 74.4308C593.612 74.6357 594.314 74.8918 594.972 75.2065C598.512 76.8967 598.944 78.7041 596.252 81.5139C593.436 84.4554 590.086 86.7677 586.546 88.7799C579.956 92.519 572.825 95.0215 565.818 97.824C565.65 97.8899 565.482 97.9923 565.306 98.0289C563.536 98.3655 561.247 99.3167 560.421 97.1142C559.455 94.5459 562.315 94.4581 563.734 93.6751C568.027 91.3117 573.052 90.1263 575.956 85.6335C576.848 84.2506 577.952 82.9774 578.713 81.5285C579.81 79.4431 579.437 77.6285 577.243 76.3772C570.836 72.7113 565.658 67.2965 559.155 63.7331C556.098 62.0574 553.319 59.8622 551.461 56.7378C549.121 52.8011 549.464 50.4816 551.878 46.5376C555.016 41.4228 559.528 39.3447 566.221 39.3667H566.228Z" fill="white"></path><path d="M262.463 63.7623C262.463 58.7939 262.441 53.8182 262.47 48.8498C262.478 47.1961 262.507 45.5205 262.719 43.8814C263.18 40.3692 263.721 40.0545 267.268 40.9911C270.53 41.8472 274.451 41.6058 275.182 46.3912C275.394 47.7815 276.974 47.1449 277.991 47.1669C285.524 47.3059 293.035 46.2815 300.583 47.0498C304.109 47.4083 306.383 49.0547 307.919 52.0474C308.505 53.1962 309.199 54.4036 307.949 55.5451C306.8 56.5914 305.542 56.2256 304.372 55.6109C303.07 54.9304 301.783 54.1987 300.576 53.3719C298.696 52.0914 296.568 51.8133 294.425 51.2718C287.74 49.5742 282.693 52.6401 277.713 56.2548C274.853 58.3256 273.478 61.3257 272.783 64.6258C271.752 69.5137 271.071 74.4601 272.739 79.3627C273.77 82.3993 273.697 85.5238 273.631 88.6555C273.617 89.5702 273.551 90.4995 273.383 91.3995C272.659 95.2191 270.808 97.846 268.797 97.5313C265.659 97.0411 265.14 94.2678 264.445 91.7873C262.478 84.7774 262.653 77.5772 262.595 70.399C262.573 68.1892 262.595 65.9794 262.595 63.7696C262.551 63.7696 262.514 63.7696 262.47 63.7696L262.463 63.7623Z" fill="white"></path><path d="M0.0731429 66.7477C0.226737 60.2208 1.36772 55.0695 4.42497 50.4742C9.1937 43.3034 18.3143 39.9082 26.1695 42.3082C27.998 42.8643 29.5778 43.6838 30.6091 45.3375C31.2308 46.3473 31.4209 47.5254 30.7115 48.462C30.0167 49.384 28.6563 49.8523 27.7201 49.2523C23.083 46.2815 18.8994 48.1035 14.9059 50.4523C10.6419 52.9621 8.85726 57.228 7.84793 61.8525C6.97756 65.8331 6.46558 69.8722 6.95562 73.9259C7.52611 78.6382 9.5594 82.3334 14.5256 83.7457C15.9372 84.1481 17.2757 84.792 18.6361 85.3481C22.4979 86.9213 25.9281 86.8628 29.3657 83.8554C31.9622 81.5871 35.1511 79.9261 38.9251 80.1236C40.739 80.2188 42.253 80.6797 42.8308 82.5456C43.3501 84.2359 42.1579 85.253 41.0608 86.2701C36.3067 90.7117 30.0459 91.941 24.2679 94.202C23.9607 94.3191 23.5511 94.2825 23.222 94.202C14.1819 91.8824 6.19496 88.1945 2.7135 78.5431C1.1995 74.3723 -0.351069 70.2308 0.0731429 66.7477Z" fill="white"></path><path d="M406.724 48.5644C407.353 54.6743 403.857 59.833 400.164 64.5892C395.644 70.4137 390.136 75.3894 383.802 79.3114C380.174 81.5578 376.371 83.4091 371.939 83.2481C370.615 83.1969 369.386 83.4457 368.253 84.1627C365.056 86.175 361.904 83.9213 358.722 83.9286C357.421 83.9286 357.296 82.1944 358.24 81.3822C359.322 80.4529 360.741 79.8749 362.072 79.2822C371.01 75.3382 379.238 70.2161 386.837 64.1209C391.211 60.6086 393.559 55.889 393.449 50.1303C393.369 45.8132 391.804 43.7497 387.642 42.557C386.589 42.257 385.462 41.9936 384.38 42.0302C373.884 42.3228 363.784 43.7351 356.521 52.6035C355.87 53.4011 355.343 54.9158 354.049 54.1475C352.425 53.1816 353.054 51.6157 353.72 50.2547C359.271 38.8691 367.967 33.9373 381.074 34.8885C383.649 35.0715 386.143 35.0861 388.732 34.8227C393.808 34.2958 398.562 35.8544 402.979 38.3203C406.87 40.4862 406.571 44.4009 406.732 48.5791L406.724 48.5644Z" fill="white"></path><path d="M354.722 86.0506C354.722 91.5897 354.678 97.1216 354.736 102.661C354.788 107.153 353.12 110.929 350.194 114.215C348.878 115.693 347.298 116.505 345.287 115.649C343.487 114.88 343.122 113.329 343.019 111.573C342.705 105.924 344.614 100.619 345.952 95.3142C347.678 88.4287 348.797 81.6749 347.861 74.5772C347.137 69.0966 346.983 63.5428 346.289 58.0549C346.069 56.2841 346.435 54.7621 346.888 53.2036C347.196 52.1352 347.92 51.2425 349.236 51.206C350.545 51.1694 351.335 52.0182 351.745 53.0279C352.154 54.0158 352.162 55.1719 352.374 56.2475C354.327 66.0965 354.085 76.0845 354.729 86.0433L354.722 86.0506Z" fill="white"></path><path d="M423.1 85.275C422.479 88.7214 422.552 93.0459 420.358 96.8508C418.902 99.3679 417.103 101.285 413.877 101.139C408.648 100.897 405.671 96.6679 407.339 91.5678C408.706 87.375 410.089 83.1749 411.808 79.1212C415.106 71.3649 416.196 63.2208 416.51 54.9085C416.649 51.3743 417.359 48.001 418.917 44.7961C419.407 43.779 419.604 42.6375 421.038 42.7546C422.654 42.8863 423.086 44.0936 423.261 45.4473C423.737 49.1059 423.839 52.7865 423.649 56.467C423.166 65.8331 424.505 75.2211 423.1 85.275Z" fill="white"></path><path d="M416.006 9.28556C416.02 6.51233 416.92 3.9074 417.988 1.34637C418.295 0.614645 418.8 0.0804878 419.582 0.00731551C420.665 -0.0878084 421.14 0.6805 421.594 1.53662C422.34 2.93421 422.128 4.39765 422.12 5.86841C422.106 9.62947 422.749 13.0832 425.434 16.0613C427.138 17.9565 428.498 20.2468 429.288 22.7273C430.729 27.2859 427.167 31.4641 422.464 30.8494C420.774 30.6299 420.058 29.364 419.385 28.003C416.459 22.1053 415.106 15.9296 415.998 9.29288L416.006 9.28556Z" fill="white"></path><path d="M174.98 39.6813C172.23 39.1106 169.502 39.1911 166.752 39.5569C160.813 40.3399 155.51 42.6814 151.151 46.2961C150.047 46.0327 150.069 45.4327 149.974 44.9278C149.564 42.8863 149.154 40.5521 146.419 40.9765C143.764 41.3935 143.94 43.896 143.969 45.8717C144.035 50.2913 143.991 54.7402 144.525 59.1159C145.863 70.121 146.251 81.1115 145.783 92.1971C145.549 97.685 146.324 103.217 146.733 108.719C146.829 109.949 146.872 111.471 148.438 111.888C150.559 112.451 152.716 113.117 154.881 113.205C157.558 113.315 159.292 111.793 159.913 109.041C160.513 106.407 160.023 103.853 159.248 101.424C157.317 95.3947 157.01 89.1531 156.264 82.9408C155.883 79.7944 156.944 78.9602 159.811 78.4699C162.671 77.9797 165.421 76.7504 168.156 75.6821C174.088 73.3698 179.244 69.821 183.42 65.0428C191.883 55.3621 187.465 42.2716 174.98 39.6667V39.6813ZM176.055 57.6597C172.991 60.0013 169.948 62.3501 167.096 64.9623C163.227 68.5185 158.78 70.9625 152.658 71.2039C152.043 66.4404 151.305 61.9037 150.924 57.3451C150.61 53.5109 153.309 50.2693 157.214 49.523C161.734 48.6596 166.298 47.9717 170.84 47.2473C171.565 47.1303 172.332 47.0424 173.042 47.1815C175.77 47.7156 179.193 48.1473 179.998 50.9352C180.795 53.7011 178.264 55.9695 176.048 57.6671L176.055 57.6597Z" fill="white"></path><path d="M85.647 55.6914C84.5864 54.1987 83.3869 52.7718 82.0777 51.4913C75.1075 44.6204 67.0548 40.2667 56.9249 40.8667C56.3763 40.8374 55.8205 40.8009 55.2719 40.7716C40.6951 40.0033 33.4543 50.584 39.4956 63.9379C42.1725 69.8576 45.8003 75.1699 50.3569 79.8236C53.7725 83.3139 57.7879 85.8311 62.4469 87.2799C71.4505 90.0824 81.1708 86.7311 86.8538 78.9017C91.542 72.4405 91.0959 63.3672 85.647 55.6914ZM81.1708 74.4162C77.4187 79.3187 72.4232 81.8798 66.221 80.57C57.9927 78.8358 53.2021 72.6893 49.0916 65.9867C48.4918 65.0136 48.7844 63.4916 48.6308 61.8525C48.9307 57.6451 50.5032 53.5914 53.7652 50.3645C56.6981 47.4595 59.6384 47.1229 63.2807 48.9376C64.0999 49.3474 65.4749 51.6816 65.9577 51.0816C69.6951 46.3985 76.5483 55.3914 80.3004 60.0671C84.0964 64.794 84.1476 70.5307 81.1708 74.4235V74.4162Z" fill="white"></path></g><defs><clipPath id="clip0_0_20"><rect width="598" height="116" fill="white"></rect></clipPath></defs></svg>