<?xml version="1.0" encoding="UTF-8"?> <svg xmlns="http://www.w3.org/2000/svg" width="61" height="13" viewBox="0 0 61 13" fill="none"><g clip-path="url(#clip0_0_9)"><path d="M14.6736 10.0252L13.9456 10.1497C13.8742 10.1628 13.81 10.1497 13.7529 10.1038C13.7029 10.0711 13.6601 10.0252 13.6173 9.96623C13.5816 9.91381 13.5031 9.9007 13.446 9.93347C13.4389 9.93347 13.4246 9.94657 13.4175 9.95968L13.1677 10.248C13.132 10.2939 13.0677 10.3201 13.0035 10.3135C12.8465 10.307 12.7323 10.2152 12.6752 10.0449C12.6467 9.97933 12.5896 9.92691 12.5111 9.91381C12.09 9.82863 11.6546 9.85484 11.1978 9.99244C10.8981 10.0842 10.8481 10.0252 11.048 9.81552C11.0765 9.79587 11.1336 9.7631 11.2193 9.70413C11.2835 9.66482 11.3549 9.64516 11.4334 9.65171C11.8687 9.68448 12.5681 9.71724 13.5245 9.74345C13.7386 9.74345 14.1883 9.63861 14.8805 9.40927C15.2231 9.29788 15.6371 9.2127 16.1081 9.16028C16.6719 9.09476 17.2786 8.87198 17.928 8.49194C18.3848 8.22984 18.7631 7.81048 19.07 7.24698C19.0985 7.188 19.1056 7.12248 19.07 7.05696L18.813 6.53931C18.7845 6.47379 18.7845 6.42137 18.813 6.3755L18.863 6.30998C18.863 6.30998 18.863 6.23135 18.8202 6.19204C18.7773 6.14617 18.5561 5.97581 18.1707 5.67439C17.5855 5.22228 17.0145 4.97329 16.465 4.92742C15.58 4.85534 14.4523 4.86189 13.0677 4.94708H12.9964L12.3041 4.875L12.1828 4.85534C12.0471 4.82913 11.9187 4.92087 11.8973 5.05192C11.8901 5.11089 11.8973 5.16986 11.933 5.21573L12.2113 5.66784C12.2398 5.70716 12.2327 5.76613 12.197 5.83165C11.933 6.36895 11.9044 6.93246 12.1185 7.52218C12.1399 7.5877 12.1471 7.65978 12.1328 7.7253C11.9615 8.45262 11.8259 8.90474 11.7403 9.0882C11.6903 9.19304 11.6047 9.24546 11.4905 9.25857C11.4191 9.25857 11.3477 9.21925 11.3406 9.14718C11.2549 8.5378 11.1265 8.11845 10.9623 7.88911C10.9124 7.82359 10.9052 7.75151 10.9409 7.67944C11.2335 7.0373 11.2478 6.38206 10.9766 5.72681C10.9409 5.64819 10.9409 5.57611 10.9766 5.51058L11.205 5.08468C11.2407 5.01915 11.205 4.93397 11.1336 4.90121C11.1193 4.89466 11.1051 4.8881 11.0837 4.8881C10.8981 4.86189 10.6983 4.90121 10.4913 4.9995C10.427 5.03226 10.3628 5.03881 10.2914 5.02571C8.89973 4.75706 7.76494 4.67187 6.90137 4.77671C5.42401 4.94708 4.38914 5.74647 3.79677 7.16179C3.76822 7.23387 3.76822 7.30595 3.79677 7.37147C3.98233 7.73841 4.12507 7.96119 4.2464 8.02671C4.79595 8.35433 5.2884 8.6623 5.72376 8.94405C5.79513 8.98992 5.95214 9.04889 6.20194 9.12097C6.31613 9.15373 6.48742 9.16028 6.70153 9.13407C7.27249 9.06855 7.83631 9.12752 8.393 9.30444C8.47151 9.33064 8.5286 9.36996 8.5857 9.42238C8.87118 9.73689 9.2423 9.88105 9.69194 9.85484C9.81326 9.84829 10.0559 9.79587 10.4199 9.70413C10.5127 9.67792 10.6126 9.70413 10.7054 9.76966L10.7839 9.82863C10.7839 9.82863 10.8196 9.9007 10.791 9.92691C10.7768 9.94002 10.7625 9.94657 10.7482 9.95312L9.23517 10.3201C9.18521 10.3332 9.17807 10.3659 9.19948 10.4315L9.22089 10.4904C9.22089 10.4904 9.24944 10.5101 9.27799 10.4904L9.39932 10.4249C9.45642 10.3921 9.52779 10.3856 9.61343 10.3987L10.7197 10.5887C10.7839 10.6018 10.8553 10.5887 10.9266 10.5559C11.1336 10.4511 11.3477 10.497 11.5618 10.687C11.5761 10.7001 11.7545 10.7918 12.09 10.9622C12.1685 11.0015 12.2184 10.9819 12.2327 10.9032C12.2327 10.8836 12.2398 10.8639 12.247 10.8443C12.2541 10.7918 12.2898 10.7656 12.3398 10.7656H13.5459C13.6244 10.7591 13.6958 10.7263 13.7529 10.6673C13.8742 10.5363 14.0955 10.5035 14.4166 10.5887C15.0376 10.746 15.7013 10.9622 16.4007 11.244C16.5221 11.2898 16.6362 11.3422 16.4007 11.375L16.0867 11.4405L15.7441 11.4602L14.9519 11.375C14.3667 11.2571 13.9813 11.2177 13.7957 11.2571C13.289 11.3684 12.7894 11.4667 12.2969 11.5519C12.1471 11.5781 11.9615 11.5192 11.7403 11.375C11.6189 11.2964 11.4405 11.2374 11.205 11.1915C10.6483 11.0801 10.0416 10.9032 9.39218 10.6608C9.32081 10.6346 9.24944 10.6346 9.17807 10.6608C9.07102 10.7067 8.9711 10.7067 8.88545 10.6608C8.55001 10.5101 8.19316 10.497 7.8149 10.6149C7.7364 10.6411 7.70071 10.6804 7.70071 10.746V10.9884C7.70071 11.0474 7.65075 11.0867 7.58652 11.0867C7.57225 11.0867 7.56511 11.0867 7.55083 11.0867C6.76576 10.8508 6.18053 10.5494 5.80227 10.1825C5.74517 10.1235 5.6738 10.1038 5.59529 10.1169L5.53106 10.13L5.23844 10.2218L4.94583 10.307L4.66035 10.3397L4.41769 10.307L4.11793 10.1825L3.82532 10.058L3.5898 10.0186C3.48988 10.0186 3.45419 9.98589 3.46847 9.90726L3.51842 9.69758C3.5327 9.63206 3.5898 9.58619 3.64689 9.58619L3.94665 9.63206L4.46765 9.69103C4.8245 9.67137 5.28127 9.66482 5.82368 9.66482L6.0592 9.69103L6.36609 9.80242L6.73722 10.0383L6.88709 10.1431C6.93705 10.1759 7.00842 10.1956 7.1012 10.189C7.21539 10.189 7.37241 10.1235 7.56511 10.0055C7.62934 9.96623 7.70785 9.95312 7.78636 9.96623C8.13607 10.0186 8.393 10.0383 8.55715 10.0252C8.57856 10.0252 8.59284 10.0252 8.61425 10.0121C8.74271 9.96623 8.79267 9.9007 8.77126 9.82208C8.74985 9.75 8.69275 9.71069 8.61425 9.69758L7.50801 9.54687C7.42237 9.53377 7.33672 9.54687 7.26535 9.58619C6.88709 9.75655 6.58734 9.65827 6.35895 9.29133C6.32327 9.23236 6.23762 9.2127 6.18053 9.24546C6.18053 9.24546 6.17339 9.24546 6.16625 9.25202L5.93787 9.40927C5.89505 9.43548 5.85223 9.44859 5.80227 9.44859H4.26067C4.26067 9.44859 4.19644 9.43548 4.17503 9.42238L3.78963 9.24546L3.46847 9.18649L3.15444 9.23891L2.72622 9.42238C2.66198 9.45514 2.58348 9.42893 2.54065 9.37651L1.7199 8.2626C1.56289 8.05292 1.3916 8.03327 1.20603 8.20363L0.806362 8.57712C0.76354 8.61643 0.706444 8.62954 0.635074 8.61643C0.470923 8.58367 0.378142 8.50504 0.363868 8.37399C0.321046 7.94808 0.213991 7.56149 0.0427028 7.21421C-0.0143933 7.08972 -0.000119283 6.99798 0.0997988 6.92591C0.156895 6.88659 0.242539 6.88659 0.299635 6.92591L0.827773 7.28629L1.24886 7.43044L1.61284 7.41734C1.74845 7.39113 1.88405 7.26008 2.02679 7.01764C2.12671 6.85383 2.25517 6.65071 2.41933 6.40171C2.54066 6.2248 2.73335 6.08064 2.99742 5.96925C3.36141 5.812 4.01802 5.49093 4.96724 5.0126C5.0957 4.94708 5.38118 4.89466 5.83082 4.84879C6.08061 4.82258 6.34468 4.7505 6.63016 4.62601C7.28676 4.34425 7.71499 4.2001 7.91482 4.19355C8.11466 4.19355 8.63566 4.20665 9.47783 4.22631C9.72762 4.23286 9.97028 4.19355 10.1915 4.10837C10.3628 4.04284 10.527 3.89214 10.6911 3.6628L10.8481 3.45312L11.0622 3.13206L11.1479 2.87651C11.2835 2.28679 11.3406 1.67087 11.312 1.03528C11.312 0.950101 11.3763 0.635585 11.5047 0.0982862C11.5333 -0.00655246 11.5761 -0.0131049 11.6475 0.0720766C11.9401 0.445564 12.0757 0.78629 12.0614 1.10081C12.0329 1.76915 12.04 2.49647 12.0757 3.26966C12.0757 3.34173 12.1042 3.40726 12.1542 3.46623C12.2969 3.64314 12.247 3.82006 12.0115 3.98387C11.9686 4.01663 11.9472 4.06905 11.9615 4.12147C12.0186 4.35736 12.197 4.33115 12.4968 4.03629C12.5539 3.98387 12.6395 3.97732 12.7038 4.01663C13.0463 4.22631 13.4175 4.33115 13.8243 4.33115C14.4166 4.33115 14.7521 4.33115 14.8163 4.33115C15.1232 4.37702 15.4515 4.4622 15.8084 4.58669C16.1224 4.69808 16.4507 4.77016 16.779 4.80948L17.2643 4.8881L17.7425 5.0126L18.7202 5.39264L19.7266 5.95615L20.7329 6.68347C20.7828 6.72278 20.8328 6.73589 20.897 6.73589C21.4323 6.69657 21.939 6.7752 22.4101 6.97833C22.5742 7.0504 22.56 7.14214 22.4458 7.24698L22.3815 7.29284C22.2816 7.36492 22.1532 7.39113 22.0318 7.35837C21.8177 7.30595 21.675 7.28629 21.6036 7.29284C21.468 7.29284 20.6401 7.03075 21.5394 7.43044C21.832 7.73841 21.9319 8.00706 21.8248 8.22984C21.7963 8.29536 21.7178 8.32157 21.6536 8.29536L21.311 8.15121C20.897 7.97429 20.79 8.07913 20.9827 8.46573C21.1682 8.85232 21.0683 9.24546 20.6615 9.64516C20.6044 9.69758 20.5259 9.72379 20.426 9.71724C20.376 9.71724 20.3189 9.69758 20.2547 9.67792C20.1905 9.65171 20.1548 9.57964 20.1833 9.52066C20.2333 9.42238 20.2833 9.22581 20.3261 8.93095C20.3475 8.813 20.2618 8.70816 20.1334 8.68851C20.0763 8.68196 20.0192 8.68851 19.9692 8.72127C19.7337 8.86542 19.5267 9.08165 19.3697 9.36996C19.334 9.42893 19.2841 9.46824 19.2198 9.4879L18.4419 9.75655C18.3563 9.78276 18.3063 9.84173 18.2992 9.92036C18.2849 10.0711 18.2421 10.1825 18.185 10.248L18.0708 10.3463L17.9495 10.3921H17.7639L17.5783 10.3135C17.5212 10.2807 17.4285 10.2545 17.2928 10.2152C16.5435 10.0318 15.8298 9.92036 15.166 9.88105C15.1089 9.88105 15.0732 9.88105 15.0518 9.90726C15.0304 9.92691 15.0161 9.94657 15.009 9.95312C14.9876 9.97933 14.9947 10.0186 15.0233 10.0318C15.0233 10.0318 15.0376 10.0318 15.0376 10.0383L15.1446 10.0711C15.216 10.0907 15.2517 10.1431 15.2588 10.2218C15.2588 10.379 15.1732 10.4839 15.0019 10.5494C14.9234 10.5822 14.8591 10.5691 14.8377 10.4839C14.7949 10.3725 14.7878 10.2676 14.8163 10.1759C14.8306 10.1235 14.802 10.0645 14.7449 10.0514C14.7307 10.0514 14.7164 10.0514 14.695 10.0514L14.6736 10.0252ZM11.2121 4.12802C11.2549 4.06905 11.2264 3.97732 11.1407 3.93145C11.0622 3.88558 10.9552 3.89214 10.9124 3.95766C10.8695 4.01663 10.8981 4.10837 10.9837 4.15423C11.0622 4.2001 11.1693 4.19355 11.2121 4.12802ZM2.86896 8.38054C2.89037 8.43296 2.92605 8.45917 2.98315 8.46573C3.09734 8.47883 3.12589 8.44607 3.06166 8.37399C3.04025 8.34778 2.99742 8.32812 2.93319 8.31502C2.86896 8.30191 2.84755 8.32812 2.87609 8.38054H2.86896ZM17.5212 9.55998C17.5284 9.59929 17.5498 9.59929 17.5783 9.57308C17.5997 9.55343 17.5926 9.54032 17.5641 9.52722C17.5284 9.52066 17.5141 9.52722 17.5212 9.55998Z" fill="white"></path><path d="M43.707 11.4405C43.8783 12.371 43.443 12.8821 42.3938 12.9803C41.8871 13.0262 41.3946 12.9934 40.9165 12.8886C40.7666 12.8558 40.7024 12.7641 40.7309 12.62L40.7523 12.4955C40.7809 12.3513 40.8736 12.2923 41.0307 12.3185L41.5231 12.3906L41.88 12.4037L42.1869 12.3513L42.4081 12.2399L42.5937 12.0368C42.6793 11.8926 42.6293 11.7157 42.4723 11.6305C42.4295 11.6109 42.3796 11.5978 42.3367 11.5912C41.6873 11.5454 41.3161 11.5192 41.2305 11.506L40.5668 11.3619L39.9815 11.0801L39.7103 10.877L39.4748 10.6411L39.2678 10.3528L39.0965 10.0383L38.8396 9.29133L38.7254 8.41986C38.6612 7.09627 38.6683 5.87752 38.754 4.78982C38.7896 4.36391 38.9252 3.90524 39.1679 3.43347L39.4891 2.93548L39.9173 2.53579L40.4526 2.24748L41.0949 2.07056L41.8728 2.00504L42.7864 2.05091C43.6285 2.13609 44.2423 2.47026 44.6277 3.06653C44.9417 3.54486 45.1202 4.18044 45.163 4.97329C45.1701 5.15675 45.0773 5.24849 44.8846 5.24849H43.4644C43.2574 5.26159 41.7301 6.39516 43.2003 4.99294C43.2217 4.77016 43.186 4.52117 43.1075 4.23941C42.9077 3.54486 42.4723 3.23034 41.8157 3.29587C41.3019 3.34173 40.9878 3.64314 40.8594 4.187C40.5097 5.68095 40.4811 7.33871 40.7737 9.14062C40.8451 9.57308 40.9878 9.8745 41.2019 10.0514L41.5802 10.2742L41.9942 10.3463L42.3796 10.2611L42.715 10.0449L42.9791 9.72379L43.1432 9.32409C43.2146 9.04234 43.2503 8.69506 43.2503 8.29536C43.2503 8.05948 43.3573 7.94153 43.5786 7.94153L44.9703 7.95464C45.1273 7.95464 45.2129 8.03982 45.2201 8.21018C45.2558 8.70816 45.1558 9.28478 44.9203 9.94657L44.6348 10.497L44.3065 10.8574L43.7855 11.2636C43.7213 11.3095 43.6928 11.375 43.707 11.4471V11.4405Z" fill="white"></path><path d="M49.6664 2.01815H50.1803C51.6648 2.14919 52.5498 2.86996 52.8353 4.17389C52.9852 4.86189 53.0565 5.73337 53.0565 6.79486C53.0565 7.8498 52.9852 8.72782 52.8353 9.41583C52.5498 10.7198 51.6648 11.4405 50.1803 11.5716H49.1526C47.6681 11.4405 46.7831 10.7198 46.4976 9.41583C46.3477 8.72782 46.2764 7.85635 46.2764 6.79486C46.2764 5.73992 46.3477 4.86189 46.4976 4.17389C46.7831 2.86996 47.6681 2.15575 49.1526 2.0247H49.6664V2.01815ZM48.2248 6.79486V7.11593L48.2533 8.37399L48.3961 9.22581L48.5103 9.55343L48.6673 9.83518L48.86 10.0449L49.0955 10.2021L49.3596 10.2939L49.6736 10.3266L49.9876 10.2939L50.2517 10.1956L50.4872 10.0383L50.6799 9.82863L50.8369 9.54687L50.9582 9.21925L51.101 8.36744L51.1295 7.10938V6.78831V6.46724L51.101 5.20917L50.9582 4.35736L50.8369 4.02974L50.6799 3.74798L50.4943 3.53831L50.2588 3.3745L49.9948 3.28276L49.6807 3.25L49.3667 3.28276L49.1026 3.3745L48.8671 3.53831L48.6815 3.74798L48.5245 4.02974L48.4032 4.35736L48.2605 5.20917L48.2319 6.46724V6.78831L48.2248 6.79486Z" fill="white"></path><path d="M27.0921 3.78075V5.75302C27.0921 5.83165 27.1563 5.89062 27.2419 5.89062H30.3608C30.4465 5.89062 30.5107 5.9496 30.5107 6.02823V7.23387C30.5178 7.3125 30.4536 7.37147 30.3751 7.37147H27.2419C27.1563 7.37147 27.0921 7.437 27.0921 7.51562V11.2833C27.0921 11.3619 27.0278 11.4209 26.9422 11.4209H25.265C25.1793 11.4209 25.1151 11.3553 25.1151 11.2833V2.27369C25.1151 2.19506 25.1793 2.13609 25.265 2.13609H30.5678C30.6534 2.13609 30.7177 2.19506 30.7177 2.27369V3.50554C30.7105 3.58417 30.6392 3.64314 30.5606 3.64314H27.2419C27.1563 3.64314 27.0921 3.70867 27.0921 3.78075Z" fill="white"></path><path d="M34.1506 2.13609C34.5431 2.13609 34.9214 2.13609 35.2782 2.14919C35.3353 2.14919 35.3924 2.15575 35.3853 2.22782L37.9831 11.2505C38.0188 11.3619 37.9689 11.4209 37.8404 11.4209L36.2274 11.434C36.099 11.434 35.9919 11.3553 35.9634 11.244L35.5494 9.57308C35.5351 9.50756 35.4709 9.46169 35.3995 9.46169C34.9927 9.46169 34.5788 9.46169 34.1506 9.46169C33.7295 9.46169 33.3084 9.46169 32.9087 9.46169C32.8373 9.46169 32.7731 9.50756 32.7588 9.57308L32.3449 11.244C32.3163 11.3553 32.2093 11.4405 32.0808 11.434L30.4679 11.4209C30.3394 11.4209 30.2894 11.3684 30.3251 11.2505L32.9159 2.22782C32.9301 2.1754 32.9658 2.14919 33.0229 2.14919C33.3869 2.14264 33.7652 2.13609 34.1506 2.13609ZM33.13 7.89567C33.1157 7.94808 33.1585 8.0005 33.2156 8.01361C33.2227 8.01361 33.2299 8.01361 33.237 8.01361H35.0926C35.1497 8.00706 35.1997 7.96119 35.1997 7.90877C35.1997 7.90222 35.1997 7.89567 35.1997 7.88911L34.2505 3.91179C34.2362 3.85937 34.1791 3.82661 34.122 3.83972C34.0792 3.84627 34.0506 3.87903 34.0435 3.91835L33.1371 7.90222L33.13 7.89567Z" fill="white"></path><path d="M56.1111 5.1502C56.1325 5.9496 56.1468 8.0005 56.1468 11.2833C56.1468 11.3816 56.0968 11.4274 55.9898 11.4274L54.5267 11.4143C54.4125 11.4143 54.3625 11.3619 54.3625 11.2636V2.28679C54.3625 2.18851 54.4125 2.14264 54.5124 2.14264H56.5251C56.6036 2.13609 56.6607 2.16885 56.6821 2.23437L59.0444 8.36089C59.0587 8.39365 59.0872 8.41986 59.1301 8.42641C59.1658 8.42641 59.1943 8.42641 59.2086 8.40675C59.2371 8.37399 59.2585 8.35433 59.2585 8.34123V2.23437C59.2585 2.16885 59.2942 2.13609 59.3656 2.13609H60.8786C60.95 2.13609 61.0142 2.19506 61.0142 2.26714V11.3357C61.0142 11.3816 60.9714 11.4209 60.9143 11.4209H58.9731C58.8375 11.4143 58.7447 11.3553 58.7018 11.2374L56.3681 5.09778C56.3681 5.09778 56.3324 5.03881 56.2967 5.02571C56.2324 4.9995 56.1825 5.0126 56.1397 5.05847C56.1325 5.07157 56.1254 5.09778 56.1254 5.14365L56.1111 5.1502Z" fill="white"></path><path d="M2.61929 5.81855C2.61929 5.81855 2.54078 5.81855 2.49082 5.77923C2.44086 5.73992 2.41945 5.6875 2.448 5.66129C2.46941 5.64163 2.5265 5.66129 2.57646 5.7006C2.62642 5.73992 2.64783 5.79234 2.61929 5.81855Z" fill="white"></path><path d="M1.20615 6.66381C1.13478 6.69657 1.03486 6.65071 0.977765 6.55897C0.927806 6.46724 0.94208 6.3624 1.00631 6.32964C1.07768 6.29687 1.1776 6.34274 1.2347 6.43448C1.29179 6.52621 1.27038 6.63105 1.20615 6.66381Z" fill="white"></path><path d="M3.63273 10.4577C3.66128 10.5428 3.67556 10.6084 3.67556 10.6542C3.67556 10.7329 3.6256 10.7656 3.53995 10.7591C3.36866 10.7394 3.26875 10.6804 3.23306 10.5756C3.19738 10.4708 3.2402 10.3659 3.36866 10.2611C3.4329 10.2087 3.49713 10.2087 3.54709 10.2742C3.58277 10.3135 3.61132 10.3725 3.63987 10.4577H3.63273Z" fill="white"></path><path d="M4.81749 11.6109C4.77467 11.7157 4.5106 11.7157 4.22512 11.6174C3.93964 11.5192 3.74694 11.3553 3.78976 11.2505C3.83259 11.1457 4.09666 11.1457 4.38214 11.244C4.66762 11.3422 4.86032 11.506 4.81749 11.6109Z" fill="white"></path></g><defs><clipPath id="clip0_0_9"><rect width="61" height="13" fill="white"></rect></clipPath></defs></svg> 